<svg width="2048" height="2048" viewBox="0 0 2048 2048" fill="none" xmlns="http://www.w3.org/2000/svg">
<g clip-path="url(#clip0_5_189)">
<g filter="url(#filter0_i_5_189)">
<rect width="2048" height="2048" rx="1024" fill="url(#paint0_linear_5_189)"/>
</g>
<rect x="6" y="6" width="2036" height="2036" rx="1018" stroke="url(#paint1_linear_5_189)" stroke-width="12"/>
<path d="M1665.96 1064.61C1665.96 1224.04 1608.69 1224.04 1494.14 1224.04C1379.61 1224.04 1322.33 1224.04 1322.33 1064.6C1322.33 947.2 1399.25 852.035 1494.14 852.035C1589.03 852.035 1665.96 947.2 1665.96 1064.61ZM749.593 1064.61C749.593 1224.04 692.319 1224.04 577.771 1224.04C463.223 1224.04 405.963 1224.04 405.963 1064.6C405.963 947.2 482.882 852.035 577.785 852.035C672.659 852.035 749.593 947.2 749.593 1064.61Z" fill="#1C1C1D"/>
<path fill-rule="evenodd" clip-rule="evenodd" d="M1035.46 1424.04C1225.21 1424.04 1378.96 1465.89 1378.96 1539.04C1378.96 1599.73 1225.21 1595.99 1035.46 1595.99C845.717 1595.99 691.963 1599.73 691.963 1539.04C691.963 1465.89 845.717 1424.04 1035.46 1424.04Z" fill="#4B280E"/>
<path fill-rule="evenodd" clip-rule="evenodd" d="M1799.66 770.317C1792.24 757.066 1779.86 747.307 1765.25 743.185C1750.63 739.063 1734.98 740.916 1721.73 748.337C1658.53 783.734 1566.18 808.878 1472.15 825.273C1379.28 841.482 1290.39 848.241 1237.85 849.487C1230.27 849.566 1222.78 851.151 1215.81 854.151C1208.85 857.151 1202.54 861.505 1197.27 866.961C1192 872.416 1187.87 878.865 1185.11 885.931C1182.35 892.998 1181.03 900.543 1181.21 908.127C1181.39 915.711 1183.08 923.183 1186.17 930.111C1189.26 937.038 1193.7 943.281 1199.22 948.479C1204.75 953.677 1211.25 957.725 1218.35 960.389C1225.45 963.052 1233.01 964.278 1240.59 963.995C1298.38 962.621 1392.95 955.375 1491.82 938.121C1589.57 921.081 1697.31 893.303 1777.69 848.269C1790.94 840.846 1800.69 828.463 1804.81 813.845C1808.93 799.226 1807.08 783.569 1799.66 770.317ZM248.26 770.317C255.681 757.066 268.061 747.307 282.676 743.185C297.291 739.063 312.944 740.916 326.193 748.337C389.409 783.734 481.744 808.878 575.767 825.273C668.646 841.482 757.53 848.241 810.068 849.487C817.653 849.563 825.147 851.147 832.115 854.145C839.083 857.143 845.386 861.496 850.658 866.951C855.93 872.406 860.066 878.855 862.826 885.922C865.585 892.989 866.913 900.535 866.733 908.12C866.553 915.705 864.868 923.179 861.776 930.107C858.684 937.035 854.247 943.28 848.721 948.479C843.196 953.677 836.694 957.726 829.591 960.39C822.489 963.053 814.928 964.279 807.348 963.995C749.542 962.621 654.989 955.375 556.098 938.121C458.367 921.081 350.629 893.303 270.248 848.269C256.998 840.848 247.238 828.467 243.115 813.848C238.991 799.229 240.842 783.571 248.26 770.317Z" fill="#BC0A26"/>
</g>
<defs>
<filter id="filter0_i_5_189" x="-53" y="-146.2" width="2101" height="2194.2" filterUnits="userSpaceOnUse" color-interpolation-filters="sRGB">
<feFlood flood-opacity="0" result="BackgroundImageFix"/>
<feBlend mode="normal" in="SourceGraphic" in2="BackgroundImageFix" result="shape"/>
<feColorMatrix in="SourceAlpha" type="matrix" values="0 0 0 0 0 0 0 0 0 0 0 0 0 0 0 0 0 0 127 0" result="hardAlpha"/>
<feMorphology radius="43" operator="dilate" in="SourceAlpha" result="effect1_innerShadow_5_189"/>
<feOffset dx="-53" dy="-169"/>
<feGaussianBlur stdDeviation="94.6"/>
<feComposite in2="hardAlpha" operator="arithmetic" k2="-1" k3="1"/>
<feColorMatrix type="matrix" values="0 0 0 0 1 0 0 0 0 1 0 0 0 0 1 0 0 0 0.25 0"/>
<feBlend mode="normal" in2="shape" result="effect1_innerShadow_5_189"/>
</filter>
<linearGradient id="paint0_linear_5_189" x1="306.959" y1="307.203" x2="1740.55" y2="1740.8" gradientUnits="userSpaceOnUse">
<stop stop-color="#FFB169"/>
<stop offset="1" stop-color="#FF5758"/>
</linearGradient>
<linearGradient id="paint1_linear_5_189" x1="1957.5" y1="1770" x2="161" y2="119" gradientUnits="userSpaceOnUse">
<stop stop-color="white"/>
<stop offset="0.5" stop-color="#333333" stop-opacity="0"/>
<stop offset="1" stop-color="white"/>
</linearGradient>
<clipPath id="clip0_5_189">
<rect width="2048" height="2048" fill="white"/>
</clipPath>
</defs>
</svg>
