<svg width="2048" height="2048" viewBox="0 0 2048 2048" fill="none" xmlns="http://www.w3.org/2000/svg">
<g clip-path="url(#clip0_5_121)">
<g filter="url(#filter0_i_5_121)">
<rect width="2048" height="2048" rx="1024" fill="url(#paint0_radial_5_121)"/>
</g>
<rect x="6" y="6" width="2036" height="2036" rx="1018" stroke="url(#paint1_linear_5_121)" stroke-width="12"/>
<path d="M2048 1024C2048 1589.53 1589.55 2048 1024.01 2048C458.48 2048 0 1589.53 0 1024C0 458.468 458.468 0 1024.01 0C1589.55 0 2048 458.455 2048 1024Z" fill="url(#paint2_radial_5_121)"/>
<path d="M2048 1024C2048 1589.53 1589.55 2048 1024.01 2048C458.48 2048 0 1589.53 0 1024C0 458.468 458.468 0 1024.01 0C1589.55 0 2048 458.455 2048 1024Z" fill="url(#paint3_radial_5_121)"/>
<path style="mix-blend-mode:multiply" d="M2048 1024C2048 1589.53 1589.55 2048 1024.01 2048C458.48 2048 0 1589.53 0 1024C0 458.468 458.468 0 1024.01 0C1589.55 0 2048 458.455 2048 1024Z" fill="url(#paint4_radial_5_121)"/>
<path style="mix-blend-mode:multiply" d="M2048 1024C2048 1589.53 1589.55 2048 1024.01 2048C458.48 2048 0 1589.53 0 1024C0 458.468 458.468 0 1024.01 0C1589.55 0 2048 458.455 2048 1024Z" fill="url(#paint5_radial_5_121)"/>
<path fill-rule="evenodd" clip-rule="evenodd" d="M1227.56 997.025C1228.67 997.179 1229.78 997.363 1230.89 997.576C1325.8 1016 1409.51 1071.32 1463.63 1151.39C1490.41 1191 1509.11 1235.5 1518.66 1282.34C1528.22 1329.18 1528.44 1377.44 1519.32 1424.37C1487.8 1586.43 1349.12 1720.43 1208.09 1819.59C1063.92 1920.97 901.708 1996.68 798.112 2038.05C773.394 2047.96 746.337 2050.54 720.19 2045.46C694.044 2040.38 669.921 2027.87 650.72 2009.42C570.187 1932.29 448.163 1801.37 352.481 1653.39C258.911 1508.67 180.567 1332.52 212.094 1170.45C221.226 1123.53 239.525 1078.86 265.945 1039C292.365 999.151 326.387 964.893 366.067 938.188C446.26 884.22 544.61 864.264 639.516 882.704C640.666 882.929 641.811 883.185 642.948 883.472C714.731 901.578 779.674 940.203 829.831 994.62C850.921 1017.5 878.658 1056.72 903.027 1105C943.428 1069.41 983.65 1043.32 1012.21 1029.83C1079.26 998.174 1154.11 986.771 1227.56 997.025Z" fill="url(#paint6_radial_5_121)"/>
<path fill-rule="evenodd" clip-rule="evenodd" d="M1227.56 997.025C1228.67 997.179 1229.78 997.363 1230.89 997.576C1325.8 1016 1409.51 1071.32 1463.63 1151.39C1490.41 1191 1509.11 1235.5 1518.66 1282.34C1528.22 1329.18 1528.44 1377.44 1519.32 1424.37C1487.8 1586.43 1349.12 1720.43 1208.09 1819.59C1063.92 1920.97 901.708 1996.68 798.112 2038.05C773.394 2047.96 746.337 2050.54 720.19 2045.46C694.044 2040.38 669.921 2027.87 650.72 2009.42C570.187 1932.29 448.163 1801.37 352.481 1653.39C258.911 1508.67 180.567 1332.52 212.094 1170.45C221.226 1123.53 239.525 1078.86 265.945 1039C292.365 999.151 326.387 964.893 366.067 938.188C446.26 884.22 544.61 864.264 639.516 882.704C640.666 882.929 641.811 883.185 642.948 883.472C714.731 901.578 779.674 940.203 829.831 994.62C850.921 1017.5 878.658 1056.72 903.027 1105C943.428 1069.41 983.65 1043.32 1012.21 1029.83C1079.26 998.174 1154.11 986.771 1227.56 997.025Z" fill="url(#paint7_radial_5_121)"/>
<path fill-rule="evenodd" clip-rule="evenodd" d="M1227.56 997.025C1228.67 997.179 1229.78 997.363 1230.89 997.576C1325.8 1016 1409.51 1071.32 1463.63 1151.39C1490.41 1191 1509.11 1235.5 1518.66 1282.34C1528.22 1329.18 1528.44 1377.44 1519.32 1424.37C1487.8 1586.43 1349.12 1720.43 1208.09 1819.59C1063.92 1920.97 901.708 1996.68 798.112 2038.05C773.394 2047.96 746.337 2050.54 720.19 2045.46C694.044 2040.38 669.921 2027.87 650.72 2009.42C570.187 1932.29 448.163 1801.37 352.481 1653.39C258.911 1508.67 180.567 1332.52 212.094 1170.45C221.226 1123.53 239.525 1078.86 265.945 1039C292.365 999.151 326.387 964.893 366.067 938.188C446.26 884.22 544.61 864.264 639.516 882.704C640.666 882.929 641.811 883.185 642.948 883.472C714.731 901.578 779.674 940.203 829.831 994.62C850.921 1017.5 878.658 1056.72 903.027 1105C943.428 1069.41 983.65 1043.32 1012.21 1029.83C1079.26 998.174 1154.11 986.771 1227.56 997.025Z" fill="url(#paint8_radial_5_121)"/>
<path d="M1024.13 870C1114.9 870 1174.01 855.159 1215.29 840.28C1254.45 826.153 1266.43 787.431 1225.52 779.564C1187.69 772.284 1125.25 768 1024.14 768C925.024 768 860.332 772.361 820.827 780.597C781.386 788.834 792.253 826.28 830.16 839.935C871.8 854.942 932.643 870 1024.13 870Z" fill="#4B280E"/>
<path fill-rule="evenodd" clip-rule="evenodd" d="M1300.2 267.469C1394.2 268.398 1485.35 299.814 1559.98 357.001C1570.77 365.145 1584.34 368.689 1597.73 366.86C1611.12 365.032 1623.24 357.98 1631.46 347.241C1639.67 336.503 1643.31 322.949 1641.58 309.536C1639.85 296.123 1632.89 283.939 1622.22 275.641C1529.99 204.979 1417.36 166.161 1301.22 165.013C1294.44 164.862 1287.7 166.059 1281.4 168.533C1275.09 171.008 1269.33 174.712 1264.47 179.429C1259.6 184.147 1255.72 189.785 1253.04 196.016C1250.37 202.247 1248.96 208.947 1248.89 215.729C1248.82 222.51 1250.1 229.237 1252.65 235.519C1255.2 241.802 1258.97 247.515 1263.75 252.328C1268.52 257.141 1274.2 260.958 1280.46 263.557C1286.72 266.156 1293.43 267.486 1300.2 267.469ZM748.675 267.469C654.68 268.397 563.522 299.813 488.882 357.001C483.555 361.204 477.446 364.306 470.91 366.126C464.374 367.945 457.542 368.447 450.811 367.601C444.08 366.754 437.584 364.577 431.701 361.197C425.818 357.816 420.665 353.298 416.541 347.906C412.418 342.515 409.406 336.357 407.682 329.79C405.957 323.223 405.554 316.379 406.495 309.655C407.437 302.931 409.704 296.461 413.166 290.622C416.628 284.783 421.215 279.69 426.66 275.641C518.886 204.978 631.523 166.16 747.664 165.013C754.438 164.862 761.174 166.058 767.482 168.533C773.79 171.007 779.545 174.71 784.412 179.427C789.28 184.144 793.163 189.781 795.837 196.011C798.512 202.242 799.924 208.941 799.991 215.722C800.059 222.503 798.781 229.229 796.232 235.512C793.683 241.795 789.913 247.508 785.141 252.322C780.368 257.135 774.689 260.953 768.432 263.553C762.174 266.153 755.451 267.484 748.675 267.469Z" fill="#E0761A"/>
<path fill-rule="evenodd" clip-rule="evenodd" d="M1279.92 557.496C1279.79 650.206 1341.72 677.386 1433.45 688.529C1524.29 701.645 1585.44 663.194 1586.98 557.496C1588.26 468.591 1538.24 360.075 1433.45 358C1328.67 360.075 1279.92 468.591 1279.92 557.496ZM768.084 557.496C768.212 650.206 706.281 677.386 614.561 688.529C523.71 701.645 462.559 663.194 461.024 557.496C459.744 468.591 509.776 360.075 614.561 358C719.345 360.075 768.084 468.591 768.084 557.496Z" fill="#1C1C1D"/>
<path fill-rule="evenodd" clip-rule="evenodd" d="M165.881 916.467C100.043 850.599 34.7346 875.38 9.5191 960.147C-15.6964 1044.93 3.05132 1280.56 140.98 1396.21C487.946 1687.18 829.869 1506.8 836.815 1328.84C843.094 1168.7 665.917 1185.93 608.274 1189.16C604.353 1189.39 602.664 1183.87 606.03 1181.68C618.134 1173.65 637.991 1159.61 658.958 1141.56C704.27 1102.48 681.059 1034.66 617.806 1054.08C608.275 1056.96 454.308 1104.21 356.737 1066.5C246.066 1023.73 232.941 983.49 165.881 916.467Z" fill="#FFF287"/>
<path fill-rule="evenodd" clip-rule="evenodd" d="M165.881 916.467C100.043 850.599 34.7346 875.38 9.5191 960.147C-15.6964 1044.93 3.05132 1280.56 140.98 1396.21C487.946 1687.18 829.869 1506.8 836.815 1328.84C843.094 1168.7 665.917 1185.93 608.274 1189.16C604.353 1189.39 602.664 1183.87 606.03 1181.68C618.134 1173.65 637.991 1159.61 658.958 1141.56C704.27 1102.48 681.059 1034.66 617.806 1054.08C608.275 1056.96 454.308 1104.21 356.737 1066.5C246.066 1023.73 232.941 983.49 165.881 916.467Z" fill="url(#paint9_linear_5_121)"/>
<path fill-rule="evenodd" clip-rule="evenodd" d="M165.881 916.467C100.043 850.599 34.7346 875.38 9.5191 960.147C-15.6964 1044.93 3.05132 1280.56 140.98 1396.21C487.946 1687.18 829.869 1506.8 836.815 1328.84C843.094 1168.7 665.917 1185.93 608.274 1189.16C604.353 1189.39 602.664 1183.87 606.03 1181.68C618.134 1173.65 637.991 1159.61 658.958 1141.56C704.27 1102.48 681.059 1034.66 617.806 1054.08C608.275 1056.96 454.308 1104.21 356.737 1066.5C246.066 1023.73 232.941 983.49 165.881 916.467Z" fill="url(#paint10_radial_5_121)" fill-opacity="0.6"/>
<path fill-rule="evenodd" clip-rule="evenodd" d="M165.881 916.467C100.043 850.599 34.7346 875.38 9.5191 960.147C-15.6964 1044.93 3.05132 1280.56 140.98 1396.21C487.946 1687.18 829.869 1506.8 836.815 1328.84C843.094 1168.7 665.917 1185.93 608.274 1189.16C604.353 1189.39 602.664 1183.87 606.03 1181.68C618.134 1173.65 637.991 1159.61 658.958 1141.56C704.27 1102.48 681.059 1034.66 617.806 1054.08C608.275 1056.96 454.308 1104.21 356.737 1066.5C246.066 1023.73 232.941 983.49 165.881 916.467Z" fill="url(#paint11_radial_5_121)"/>
<path fill-rule="evenodd" clip-rule="evenodd" d="M165.881 916.467C100.043 850.599 34.7346 875.38 9.5191 960.147C-15.6964 1044.93 3.05132 1280.56 140.98 1396.21C487.946 1687.18 829.869 1506.8 836.815 1328.84C843.094 1168.7 665.917 1185.93 608.274 1189.16C604.353 1189.39 602.664 1183.87 606.03 1181.68C618.134 1173.65 637.991 1159.61 658.958 1141.56C704.27 1102.48 681.059 1034.66 617.806 1054.08C608.275 1056.96 454.308 1104.21 356.737 1066.5C246.066 1023.73 232.941 983.49 165.881 916.467Z" fill="url(#paint12_radial_5_121)"/>
<path fill-rule="evenodd" clip-rule="evenodd" d="M165.881 916.467C100.043 850.599 34.7346 875.38 9.5191 960.147C-15.6964 1044.93 3.05132 1280.56 140.98 1396.21C487.946 1687.18 829.869 1506.8 836.815 1328.84C843.094 1168.7 665.917 1185.93 608.274 1189.16C604.353 1189.39 602.664 1183.87 606.03 1181.68C618.134 1173.65 637.991 1159.61 658.958 1141.56C704.27 1102.48 681.059 1034.66 617.806 1054.08C608.275 1056.96 454.308 1104.21 356.737 1066.5C246.066 1023.73 232.941 983.49 165.881 916.467Z" fill="url(#paint13_radial_5_121)"/>
<path fill-rule="evenodd" clip-rule="evenodd" d="M1795.37 934.293C1835.03 836.904 1835.03 785.546 1885.45 759.866C1935.88 734.187 2011.53 811.225 2011.53 965.301C2011.53 1222.07 1910.67 1504.02 1708.96 1696.6C1507.24 1889.19 1045.46 1884.93 1004.11 1672.91C969.725 1497.07 1151.58 1479.56 1210.02 1471.2C1214 1470.62 1214.78 1464.24 1211.01 1462.5C1190.4 1452.61 1170.44 1441.38 1151.25 1428.86C1099.24 1394.88 1111.21 1314.96 1177.85 1323.54C1253.37 1335.26 1346.73 1357.53 1427.24 1349.18C1660.09 1324.94 1755.69 1031.68 1795.37 934.293Z" fill="#FFF287"/>
<path fill-rule="evenodd" clip-rule="evenodd" d="M1795.37 934.293C1835.03 836.904 1835.03 785.546 1885.45 759.866C1935.88 734.187 2011.53 811.225 2011.53 965.301C2011.53 1222.07 1910.67 1504.02 1708.96 1696.6C1507.24 1889.19 1045.46 1884.93 1004.11 1672.91C969.725 1497.07 1151.58 1479.56 1210.02 1471.2C1214 1470.62 1214.78 1464.24 1211.01 1462.5C1190.4 1452.61 1170.44 1441.38 1151.25 1428.86C1099.24 1394.88 1111.21 1314.96 1177.85 1323.54C1253.37 1335.26 1346.73 1357.53 1427.24 1349.18C1660.09 1324.94 1755.69 1031.68 1795.37 934.293Z" fill="url(#paint14_linear_5_121)"/>
<path fill-rule="evenodd" clip-rule="evenodd" d="M1795.37 934.293C1835.03 836.904 1835.03 785.546 1885.45 759.866C1935.88 734.187 2011.53 811.225 2011.53 965.301C2011.53 1222.07 1910.67 1504.02 1708.96 1696.6C1507.24 1889.19 1045.46 1884.93 1004.11 1672.91C969.725 1497.07 1151.58 1479.56 1210.02 1471.2C1214 1470.62 1214.78 1464.24 1211.01 1462.5C1190.4 1452.61 1170.44 1441.38 1151.25 1428.86C1099.24 1394.88 1111.21 1314.96 1177.85 1323.54C1253.37 1335.26 1346.73 1357.53 1427.24 1349.18C1660.09 1324.94 1755.69 1031.68 1795.37 934.293Z" fill="url(#paint15_radial_5_121)" fill-opacity="0.8"/>
<path fill-rule="evenodd" clip-rule="evenodd" d="M1795.37 934.293C1835.03 836.904 1835.03 785.546 1885.45 759.866C1935.88 734.187 2011.53 811.225 2011.53 965.301C2011.53 1222.07 1910.67 1504.02 1708.96 1696.6C1507.24 1889.19 1045.46 1884.93 1004.11 1672.91C969.725 1497.07 1151.58 1479.56 1210.02 1471.2C1214 1470.62 1214.78 1464.24 1211.01 1462.5C1190.4 1452.61 1170.44 1441.38 1151.25 1428.86C1099.24 1394.88 1111.21 1314.96 1177.85 1323.54C1253.37 1335.26 1346.73 1357.53 1427.24 1349.18C1660.09 1324.94 1755.69 1031.68 1795.37 934.293Z" fill="url(#paint16_radial_5_121)"/>
<path style="mix-blend-mode:screen" fill-rule="evenodd" clip-rule="evenodd" d="M1795.37 934.293C1835.03 836.904 1835.03 785.546 1885.45 759.866C1935.88 734.187 2011.53 811.225 2011.53 965.301C2011.53 1222.07 1910.67 1504.02 1708.96 1696.6C1507.24 1889.19 1045.46 1884.93 1004.11 1672.91C969.725 1497.07 1151.58 1479.56 1210.02 1471.2C1214 1470.62 1214.78 1464.24 1211.01 1462.5C1190.4 1452.61 1170.44 1441.38 1151.25 1428.86C1099.24 1394.88 1111.21 1314.96 1177.85 1323.54C1253.37 1335.26 1346.73 1357.53 1427.24 1349.18C1660.09 1324.94 1755.69 1031.68 1795.37 934.293Z" fill="url(#paint17_radial_5_121)" fill-opacity="0.9"/>
</g>
<defs>
<filter id="filter0_i_5_121" x="-53" y="-146.2" width="2101" height="2194.2" filterUnits="userSpaceOnUse" color-interpolation-filters="sRGB">
<feFlood flood-opacity="0" result="BackgroundImageFix"/>
<feBlend mode="normal" in="SourceGraphic" in2="BackgroundImageFix" result="shape"/>
<feColorMatrix in="SourceAlpha" type="matrix" values="0 0 0 0 0 0 0 0 0 0 0 0 0 0 0 0 0 0 127 0" result="hardAlpha"/>
<feMorphology radius="43" operator="dilate" in="SourceAlpha" result="effect1_innerShadow_5_121"/>
<feOffset dx="-53" dy="-169"/>
<feGaussianBlur stdDeviation="94.6"/>
<feComposite in2="hardAlpha" operator="arithmetic" k2="-1" k3="1"/>
<feColorMatrix type="matrix" values="0 0 0 0 1 0 0 0 0 1 0 0 0 0 1 0 0 0 0.25 0"/>
<feBlend mode="normal" in2="shape" result="effect1_innerShadow_5_121"/>
</filter>
<radialGradient id="paint0_radial_5_121" cx="0" cy="0" r="1" gradientUnits="userSpaceOnUse" gradientTransform="translate(518 281.5) rotate(43.302) scale(2636.9)">
<stop stop-color="#FFD86C"/>
<stop offset="1" stop-color="#FF8C3A"/>
</radialGradient>
<linearGradient id="paint1_linear_5_121" x1="1957.5" y1="1770" x2="161" y2="119" gradientUnits="userSpaceOnUse">
<stop stop-color="white"/>
<stop offset="0.5" stop-color="#333333" stop-opacity="0"/>
<stop offset="1" stop-color="white"/>
</linearGradient>
<radialGradient id="paint2_radial_5_121" cx="0" cy="0" r="1" gradientUnits="userSpaceOnUse" gradientTransform="translate(1367.97 1783.94) rotate(-85.6013) scale(205.79 572.087)">
<stop stop-color="#791119" stop-opacity="0.7"/>
<stop offset="1" stop-color="#791119" stop-opacity="0"/>
</radialGradient>
<radialGradient id="paint3_radial_5_121" cx="0" cy="0" r="1" gradientTransform="matrix(118.942 260.565 -1706.16 778.822 1661.24 1415.87)" gradientUnits="userSpaceOnUse">
<stop stop-color="#791119" stop-opacity="0.08"/>
<stop offset="1" stop-color="#791119" stop-opacity="0"/>
</radialGradient>
<radialGradient id="paint4_radial_5_121" cx="0" cy="0" r="1" gradientTransform="matrix(64.0032 -256.013 367.801 91.9496 384.403 1408.07)" gradientUnits="userSpaceOnUse">
<stop offset="0.2088" stop-color="#791119" stop-opacity="0.4"/>
<stop offset="1" stop-color="#791119" stop-opacity="0"/>
</radialGradient>
<radialGradient id="paint5_radial_5_121" cx="0" cy="0" r="1" gradientTransform="matrix(192.01 -128.006 183.9 275.85 256.397 1280.06)" gradientUnits="userSpaceOnUse">
<stop offset="0.2088" stop-color="#791119" stop-opacity="0.3"/>
<stop offset="1" stop-color="#791119" stop-opacity="0"/>
</radialGradient>
<radialGradient id="paint6_radial_5_121" cx="0" cy="0" r="1" gradientTransform="matrix(563.448 665.408 -786.961 665.408 537.725 1203.26)" gradientUnits="userSpaceOnUse">
<stop offset="0.3729" stop-color="#FA2E3E"/>
<stop offset="0.9266" stop-color="#E11731"/>
</radialGradient>
<radialGradient id="paint7_radial_5_121" cx="0" cy="0" r="1" gradientTransform="matrix(-10.4039 -221.029 322.939 -15.1789 526.614 1463.11)" gradientUnits="userSpaceOnUse">
<stop stop-color="#791119" stop-opacity="0.9"/>
<stop offset="1" stop-color="#791119" stop-opacity="0"/>
</radialGradient>
<radialGradient id="paint8_radial_5_121" cx="0" cy="0" r="1" gradientTransform="matrix(102.569 -226.23 330.541 149.644 1294.15 1785.97)" gradientUnits="userSpaceOnUse">
<stop stop-color="#791119" stop-opacity="0.9"/>
<stop offset="1" stop-color="#791119" stop-opacity="0"/>
</radialGradient>
<linearGradient id="paint9_linear_5_121" x1="550.834" y1="785.361" x2="319.375" y2="1216.77" gradientUnits="userSpaceOnUse">
<stop stop-color="#FFF287"/>
<stop offset="1" stop-color="#F68628" stop-opacity="0.3"/>
</linearGradient>
<radialGradient id="paint10_radial_5_121" cx="0" cy="0" r="1" gradientTransform="matrix(-30.545 512.704 -1112.77 -68.7562 583.039 878.953)" gradientUnits="userSpaceOnUse">
<stop stop-color="#FFF287" stop-opacity="0"/>
<stop offset="0.9846" stop-color="#FF5758" stop-opacity="0.8"/>
</radialGradient>
<radialGradient id="paint11_radial_5_121" cx="0" cy="0" r="1" gradientTransform="matrix(-665.409 768.749 -796.392 -714.928 733.364 615.479)" gradientUnits="userSpaceOnUse">
<stop offset="0.6481" stop-color="#FFE480"/>
<stop offset="0.9167" stop-color="#FFE480" stop-opacity="0"/>
</radialGradient>
<radialGradient id="paint12_radial_5_121" cx="0" cy="0" r="1" gradientTransform="matrix(-277.852 605.822 -515.47 -245.191 556.282 900.007)" gradientUnits="userSpaceOnUse">
<stop offset="0.9124" stop-color="#FFE480" stop-opacity="0"/>
<stop offset="1" stop-color="#FFE480"/>
</radialGradient>
<radialGradient id="paint13_radial_5_121" cx="0" cy="0" r="1" gradientTransform="matrix(171.095 200.004 -413.305 366.692 -5.35807 901.136)" gradientUnits="userSpaceOnUse">
<stop stop-color="#FFE483"/>
<stop offset="0.9167" stop-color="#FFEB80" stop-opacity="0"/>
</radialGradient>
<linearGradient id="paint14_linear_5_121" x1="999.82" y1="1540.12" x2="2321.4" y2="1714.91" gradientUnits="userSpaceOnUse">
<stop offset="0.0835" stop-color="#FFF287"/>
<stop offset="1" stop-color="#F68628"/>
</linearGradient>
<radialGradient id="paint15_radial_5_121" cx="0" cy="0" r="1" gradientTransform="matrix(390.722 313.878 -1479.01 1909.45 1531.33 1170.76)" gradientUnits="userSpaceOnUse">
<stop stop-color="#FFF287" stop-opacity="0"/>
<stop offset="0.7371" stop-color="#FF5758" stop-opacity="0.4"/>
</radialGradient>
<radialGradient id="paint16_radial_5_121" cx="0" cy="0" r="1" gradientTransform="matrix(370.173 330.491 -365.585 424.685 1318.46 965.34)" gradientUnits="userSpaceOnUse">
<stop offset="0.8254" stop-color="#FFE480"/>
<stop offset="1" stop-color="#FFE480" stop-opacity="0"/>
</radialGradient>
<radialGradient id="paint17_radial_5_121" cx="0" cy="0" r="1" gradientTransform="matrix(567.349 320.992 -402.011 736.932 1381.49 1093.74)" gradientUnits="userSpaceOnUse">
<stop offset="0.897" stop-color="#FFE480" stop-opacity="0"/>
<stop offset="1" stop-color="#FFE480"/>
</radialGradient>
<clipPath id="clip0_5_121">
<rect width="2048" height="2048" fill="white"/>
</clipPath>
</defs>
</svg>
