<svg width="2048" height="2048" viewBox="0 0 2048 2048" fill="none" xmlns="http://www.w3.org/2000/svg">
<g clip-path="url(#clip0_3_64)">
<g filter="url(#filter0_i_3_64)">
<rect width="2048" height="2048" rx="1024" fill="url(#paint0_radial_3_64)"/>
</g>
<rect x="6" y="6" width="2036" height="2036" rx="1018" stroke="url(#paint1_linear_3_64)" stroke-width="12"/>
<path fill-rule="evenodd" clip-rule="evenodd" d="M719.323 1402.89C739.659 1166.88 863.469 1033.81 1023.99 1033.81C1184.52 1033.81 1308.33 1167 1328.67 1402.89C1349.02 1638.89 1234.77 1800.81 1024 1800.81C813.216 1800.81 698.973 1638.89 719.323 1402.89Z" fill="#4B280E"/>
<path d="M1433 956.814C1531.86 956.814 1612 859.436 1612 739.314C1612 619.192 1531.86 521.814 1433 521.814C1334.14 521.814 1254 619.192 1254 739.314C1254 859.436 1334.14 956.814 1433 956.814Z" fill="#1C1C1D"/>
<path d="M614.999 956.814C713.858 956.814 793.999 859.436 793.999 739.314C793.999 619.192 713.858 521.814 614.999 521.814C516.14 521.814 435.999 619.192 435.999 739.314C435.999 859.436 516.14 956.814 614.999 956.814Z" fill="#1C1C1D"/>
<path fill-rule="evenodd" clip-rule="evenodd" d="M1580.78 415.717C1552.32 382.078 1512.95 359.467 1469.51 351.819C1426.08 344.17 1381.34 351.967 1343.07 373.854C1337.23 377.305 1330.77 379.564 1324.06 380.499C1317.34 381.434 1310.51 381.027 1303.95 379.301C1297.39 377.575 1291.25 374.565 1285.87 370.445C1280.49 366.325 1275.98 361.179 1272.61 355.305C1269.24 349.43 1267.07 342.946 1266.24 336.228C1265.4 329.51 1265.91 322.693 1267.73 316.173C1269.56 309.653 1272.66 303.561 1276.87 298.25C1281.07 292.94 1286.29 288.517 1292.23 285.239C1414.05 215.57 1568.32 242.725 1658.92 349.788C1667.68 360.134 1671.96 373.529 1670.82 387.025C1669.68 400.522 1663.22 413.015 1652.86 421.756C1642.5 430.496 1629.08 434.77 1615.57 433.635C1602.05 432.5 1589.54 426.063 1580.78 415.717ZM704.517 373.854C666.249 351.969 621.508 344.172 578.078 351.818C534.648 359.464 495.277 382.071 466.814 415.704C458.006 425.863 445.543 432.146 432.126 433.192C418.71 434.237 405.421 429.962 395.14 421.291C384.86 412.621 378.416 400.254 377.206 386.872C375.996 373.49 380.116 360.17 388.675 349.801C479.268 242.725 633.538 215.57 755.356 285.239C766.913 292.077 775.312 303.181 778.737 316.151C782.163 329.121 780.34 342.916 773.662 354.555C766.985 366.194 755.989 374.743 743.051 378.354C730.113 381.965 716.271 380.349 704.517 373.854Z" fill="#E0761A"/>
</g>
<defs>
<filter id="filter0_i_3_64" x="-53" y="-146.2" width="2101" height="2194.2" filterUnits="userSpaceOnUse" color-interpolation-filters="sRGB">
<feFlood flood-opacity="0" result="BackgroundImageFix"/>
<feBlend mode="normal" in="SourceGraphic" in2="BackgroundImageFix" result="shape"/>
<feColorMatrix in="SourceAlpha" type="matrix" values="0 0 0 0 0 0 0 0 0 0 0 0 0 0 0 0 0 0 127 0" result="hardAlpha"/>
<feMorphology radius="43" operator="dilate" in="SourceAlpha" result="effect1_innerShadow_3_64"/>
<feOffset dx="-53" dy="-169"/>
<feGaussianBlur stdDeviation="94.6"/>
<feComposite in2="hardAlpha" operator="arithmetic" k2="-1" k3="1"/>
<feColorMatrix type="matrix" values="0 0 0 0 1 0 0 0 0 1 0 0 0 0 1 0 0 0 0.25 0"/>
<feBlend mode="normal" in2="shape" result="effect1_innerShadow_3_64"/>
</filter>
<radialGradient id="paint0_radial_3_64" cx="0" cy="0" r="1" gradientUnits="userSpaceOnUse" gradientTransform="translate(518 281.5) rotate(43.302) scale(2636.9)">
<stop stop-color="#FFD86C"/>
<stop offset="1" stop-color="#FF8C3A"/>
</radialGradient>
<linearGradient id="paint1_linear_3_64" x1="1957.5" y1="1770" x2="161" y2="119" gradientUnits="userSpaceOnUse">
<stop stop-color="white"/>
<stop offset="0.5" stop-color="#333333" stop-opacity="0"/>
<stop offset="1" stop-color="white"/>
</linearGradient>
<clipPath id="clip0_3_64">
<rect width="2048" height="2048" fill="white"/>
</clipPath>
</defs>
</svg>
