<!-- Exported by Character Map UWP -->
<svg height="100%" viewBox="77 131 874 874" width="100%" xmlns="http://www.w3.org/2000/svg" xmlns:xlink="http://www.w3.org/1999/xlink">
  <path d="M514,1005C484,1005 454.833,1002.17 426.5,996.5C398.167,990.833 370.667,982.333 344,971C318,959.667 293.333,946.167 270,930.5C246.667,914.833 225,897 205,877C185,857 167.167,835.5 151.5,812.5C135.833,789.5 122.333,764.667 111,738C99.6667,711.333 91.1667,684 85.5,656C79.8333,628 77,598.667 77,568C77,538 79.8333,508.833 85.5,480.5C91.1667,452.167 99.6667,425 111,399C122.333,372.333 135.833,347.333 151.5,324C167.167,300.667 185,279 205,259C225,239 246.667,221.167 270,205.5C293.333,189.833 318,176.333 344,165C370.667,153.667 398.167,145.167 426.5,139.5C454.833,133.833 484,131 514,131C544,131 573.167,133.833 601.5,139.5C629.833,145.167 657.333,153.667 684,165C710,176.333 734.667,189.833 758,205.5C781.333,221.167 803,239 823,259C843,279 860.833,300.667 876.5,324C892.167,347.333 905.667,372.333 917,399C928.333,425 936.833,452.167 942.5,480.5C948.167,508.833 951,538 951,568C951,598.667 948.167,628 942.5,656C936.833,684 928.333,711.333 917,738C905.667,764.667 892.167,789.5 876.5,812.5C860.833,835.5 843,857 823,877C803,897 781.333,914.833 758,930.5C734.667,946.167 710,959.667 684,971C657.333,982.333 629.833,990.833 601.5,996.5C573.167,1002.17 544,1005 514,1005ZM514,933C539.333,933 563.667,930.5 587,925.5C610.333,920.5 633,913.333 655,904C677,894.667 697.667,883.5 717,870.5C736.333,857.5 754.333,842.667 771,826C788.333,809.333 803.5,791.333 816.5,772C829.5,752.667 840.667,732 850,710C859.333,688 866.333,665.167 871,641.5C875.667,617.833 878,593.333 878,568C878,543.333 875.667,519.167 871,495.5C866.333,471.833 859.333,449 850,427C840.667,405 829.5,384.333 816.5,365C803.5,345.667 788.333,327.667 771,311C754.333,294.333 736.333,279.333 717,266C697.667,252.667 677,241.333 655,232C633,222.667 610.333,215.667 587,211C563.667,206.333 539.333,204 514,204C488.667,204 464.167,206.333 440.5,211C416.833,215.667 394,222.667 372,232C350,241.333 329.333,252.667 310,266C290.667,279.333 272.667,294.333 256,311C239.333,327.667 224.5,345.667 211.5,365C198.5,384.333 187.333,405 178,427C168.667,449 161.667,471.833 157,495.5C152.333,519.167 150,543.333 150,568C150,593.333 152.333,617.833 157,641.5C161.667,665.167 168.667,688 178,710C187.333,732 198.5,752.667 211.5,772C224.5,791.333 239.333,809.333 256,826C272.667,842.667 290.667,857.5 310,870.5C329.333,883.5 350,894.667 372,904C394,913.333 416.833,920.5 440.5,925.5C464.167,930.5 488.667,933 514,933ZM807,851C794.333,863.667 780.333,875.333 765,886C749.667,896.667 733,906.667 715,916C697.667,924.667 680.167,932.5 662.5,939.5C644.833,946.5 627,952.333 609,957C591.667,961.667 575,965.333 559,968C543,970.667 528,972 514,972C500,972 485,970.667 469,968C453,965.333 436,961.667 418,957C400.667,952.333 383,946.5 365,939.5C347,932.5 329.333,924.667 312,916C294.667,906.667 278.333,896.667 263,886C247.667,875.333 233.667,863.667 221,851L222,846C225.333,835.333 231.167,824.833 239.5,814.5C247.833,804.167 258.667,794 272,784C285.333,774 300.333,764.833 317,756.5C333.667,748.167 352.333,740.667 373,734C393.667,727.333 415.833,722.333 439.5,719C463.167,715.667 488,714 514,714C540,714 564.833,715.667 588.5,719C612.167,722.333 634,727.333 654,734C675.333,740.667 694.333,748.167 711,756.5C727.667,764.833 742.667,774 756,784C768.667,794 779.167,804.167 787.5,814.5C795.833,824.833 802,835.333 806,846L807,851ZM514,641C500,641 486.833,639.167 474.5,635.5C462.167,631.833 450.333,626.667 439,620C428.333,612.667 418.5,604.167 409.5,594.5C400.5,584.833 393,574 387,562C380.333,550 375.333,537 372,523C368.667,509 367,494.667 367,480C367,465.333 368.5,451.333 371.5,438C374.5,424.667 379.333,412 386,400C392.667,388 400.5,377.333 409.5,368C418.5,358.667 428.333,350.333 439,343C450.333,335.667 462.167,330.167 474.5,326.5C486.833,322.833 500,321 514,321C527.333,321 540.167,322.833 552.5,326.5C564.833,330.167 576.667,335.667 588,343C599.333,350.333 609.333,358.667 618,368C626.667,377.333 634.333,388 641,400C647.667,412 652.667,424.667 656,438C659.333,451.333 661,465.333 661,480C661,494.667 659.333,509 656,523C652.667,537 647.667,550 641,562C635,574.667 627.5,585.833 618.5,595.5C609.5,605.167 599.333,613.667 588,621C577.333,627.667 565.667,632.667 553,636C540.333,639.333 527.333,641 514,641Z" fill="#000000" fill-opacity="1">
  </path>
</svg>