<!-- Exported by Character Map UWP -->
<svg height="100%" viewBox="160 25 767 944" width="100%" xmlns="http://www.w3.org/2000/svg" xmlns:xlink="http://www.w3.org/1999/xlink">
  <path d="M341,233L341,143C341,123.667 343.5,106.667 348.5,92C353.5,77.3334 360.667,65 370,55C380,45 392.333,37.5 407,32.5C421.667,27.5 438.667,25 458,25L601,25C611.667,25 621.5,25.6667 630.5,27C639.5,28.3334 648,30.6667 656,34C664,36.6667 671.667,40.3334 679,45C686.333,49.6667 693.333,55.6667 700,63L889,255C896.333,262.333 902.333,269.833 907,277.5C911.667,285.167 915.333,293 918,301C920.667,309 922.833,317.833 924.5,327.5C926.167,337.167 927,347.667 927,359L927,664C927,683.333 924.5,700.333 919.5,715C914.5,729.667 907,742 897,752C887.667,762 875.667,769.333 861,774C846.333,778.667 829.333,781 810,781L733,781L733,721L807,721C817,721 825.667,719.833 833,717.5C840.333,715.167 846.333,711.333 851,706C856.333,700.667 860.167,694.5 862.5,687.5C864.833,680.5 866,672.333 866,663L866,342L691,342C680.333,342 670.833,340.667 662.5,338C654.167,335.333 647.333,331.333 642,326C636.667,320.667 632.833,314 630.5,306C628.167,298 627,288.667 627,278L627,86L461,86C451,86 442.333,87.1667 435,89.5C427.667,91.8334 421.667,95.6667 417,101C411.667,105.667 407.833,111.667 405.5,119C403.167,126.333 402,134.667 402,144L402,233L342,233ZM681,269C681,272.333 681.333,275.167 682,277.5C682.667,279.833 683.667,281.667 685,283C686.333,285 688.167,286.333 690.5,287C692.833,287.667 695.667,288 699,288L850,288L681,115L681,269ZM160,851L160,330C160,310.667 162.333,293.667 167,279C171.667,264.333 178.667,252 188,242C198,232 210.333,224.5 225,219.5C239.667,214.5 256.667,212 276,212L408,212C418.667,212 428.333,212.667 437,214C445.667,215.333 453.333,217 460,219C467.333,221 474.5,224.5 481.5,229.5C488.5,234.5 495.333,240.667 502,248L709,458C713.667,463.333 718,468.5 722,473.5C726,478.5 729,483 731,487C733.667,491.667 736,496.5 738,501.5C740,506.5 741.333,511.667 742,517C742.667,523 743.333,529.333 744,536C744.667,542.667 745,550 745,558L745,851C745,870.333 742.5,887.333 737.5,902C732.5,916.667 725,929 715,939C705.667,949 693.667,956.5 679,961.5C664.333,966.5 647.333,969 628,969L276,969C256.667,969 239.667,966.5 225,961.5C210.333,956.5 198.333,949 189,939C179,929 171.667,916.667 167,902C162.333,887.333 160,870.333 160,851ZM220,850C220,859.333 221.167,867.5 223.5,874.5C225.833,881.5 229.667,887.667 235,893C239.667,898.333 245.667,902.167 253,904.5C260.333,906.833 268.667,908 278,908L625,908C635,908 643.667,906.833 651,904.5C658.333,902.167 664.333,898.333 669,893C674.333,887.667 678.167,881.5 680.5,874.5C682.833,867.5 684,859.333 684,850L684,561L472,561C460.667,561 450.5,559.5 441.5,556.5C432.5,553.5 425,549 419,543C413.667,537.667 409.5,530.5 406.5,521.5C403.5,512.5 402,502 402,490L402,273L279,273C269,273 260.333,274.167 253,276.5C245.667,278.833 239.667,282.667 235,288C229.667,292.667 225.833,298.667 223.5,306C221.167,313.333 220,321.667 220,331L220,850ZM479,504L673,504L459,287L459,483C459,487 459.333,490.333 460,493C460.667,495.667 461.667,497.667 463,499C465,501 467.333,502.333 470,503C472.667,503.667 475.667,504 479,504Z" fill="#000000" fill-opacity="1">
  </path>
</svg>