<!-- Exported by Character Map UWP -->
<svg height="100%" viewBox="53 179 907 769" width="100%" xmlns="http://www.w3.org/2000/svg" xmlns:xlink="http://www.w3.org/1999/xlink">
  <path d="M578,944C564.667,944 551.5,943.333 538.5,942C525.5,940.667 512.667,938.333 500,935C487.333,932.333 475,929.167 463,925.5C451,921.833 439.333,917.333 428,912C437.333,901.333 445.5,890 452.5,878C459.5,866 465.333,853.667 470,841C475.333,827.667 479.167,814 481.5,800C483.833,786 485,771.667 485,757C485,747 484.5,737.333 483.5,728C482.5,718.667 481,709.333 479,700C486.333,698.667 493.833,697.333 501.5,696C509.167,694.667 517.333,693.333 526,692C534,690.667 542.333,689.833 551,689.5C559.667,689.167 568.333,689 577,689C596.333,689 614.5,690 631.5,692C648.5,694 665,697 681,701C696.333,705 710.833,709.667 724.5,715C738.167,720.333 750.667,726.333 762,733C773.333,739.667 783.333,746.5 792,753.5C800.667,760.5 808,767.667 814,775C827.333,761 839,745.833 849,729.5C859,713.167 867.667,696 875,678C882.333,660 887.667,641.167 891,621.5C894.333,601.833 896,581.667 896,561C896,539 894,517.667 890,497C886,476.333 880,456.333 872,437C863.333,417.667 853.333,399.5 842,382.5C830.667,365.5 817.667,349.667 803,335C788.333,321 772.5,308.167 755.5,296.5C738.5,284.833 720.333,275 701,267C682.333,259 662.5,252.833 641.5,248.5C620.5,244.167 599,242 577,242C557,242 537.5,243.833 518.5,247.5C499.5,251.167 481,256.333 463,263C445,270.333 428,278.833 412,288.5C396,298.167 381,309 367,321C353,333.667 340.167,347.167 328.5,361.5C316.833,375.833 306.667,391.667 298,409C288.667,425.667 281.167,443 275.5,461C269.833,479 265.667,497.667 263,517C257.667,516.333 252.167,515.833 246.5,515.5C240.833,515.167 235,515.333 229,516C223,516 217.333,516.333 212,517C206.667,517.667 202,518.333 198,519C200.667,495.667 205.333,472.833 212,450.5C218.667,428.167 227.333,406.667 238,386C248.667,365.333 261,346 275,328C289,310 304.667,293.333 322,278C339.333,262 357.667,248 377,236C396.333,224 417,213.667 439,205C460.333,196.333 482.667,189.833 506,185.5C529.333,181.167 553,179 577,179C603,179 628.333,181.5 653,186.5C677.667,191.5 701.667,199 725,209C747.667,219 769.167,230.833 789.5,244.5C809.833,258.167 829,274 847,292C864.333,309.333 880,328.167 894,348.5C908,368.833 920,390.667 930,414C940,436.667 947.5,460.333 952.5,485C957.5,509.667 960,535 960,561C960,587 957.5,612.333 952.5,637C947.5,661.667 940,685.667 930,709C920,731.667 908.167,753.167 894.5,773.5C880.833,793.833 865,813 847,831C829.667,848.333 810.833,864 790.5,878C770.167,892 748.333,904 725,914C701.667,924 677.833,931.5 653.5,936.5C629.167,941.5 604,944 578,944ZM577,625C565,625 553.667,623.333 543,620C532.333,616.667 522,612 512,606C502.667,600 494.167,592.833 486.5,584.5C478.833,576.167 472,566.667 466,556C460,545.333 455.667,534 453,522C450.333,510 449,497.333 449,484C448.333,471.333 449.5,459.167 452.5,447.5C455.5,435.833 459.667,424.667 465,414C471,404 477.833,394.667 485.5,386C493.167,377.333 502,370 512,364C522,358 532.333,353.333 543,350C553.667,346.667 565,345 577,345C589,345 600.5,346.667 611.5,350C622.5,353.333 632.667,358 642,364C652,370 660.833,377.333 668.5,386C676.167,394.667 683,404 689,414C694.333,424.667 698.5,435.833 701.5,447.5C704.5,459.167 706,471.333 706,484C706,497.333 704.5,510 701.5,522C698.5,534 694.333,545.333 689,556C683,566.667 676.167,576.333 668.5,585C660.833,593.667 652,601 642,607C632.667,613 622.5,617.5 611.5,620.5C600.5,623.5 589,625 577,625ZM244,948C230.667,948 217.833,946.667 205.5,944C193.167,941.333 181.333,937.667 170,933C158.667,928.333 147.833,922.5 137.5,915.5C127.167,908.5 117.667,900.667 109,892C100.333,883.333 92.6667,874 86,864C79.3333,854 73.3333,843 68,831C63.3333,819.667 59.6667,807.833 57,795.5C54.3333,783.167 53,770.333 53,757C53,744.333 54.3333,731.833 57,719.5C59.6667,707.167 63.3333,695.333 68,684C73.3333,672.667 79.3333,661.833 86,651.5C92.6667,641.167 100.333,631.667 109,623C117.667,614.333 127.167,606.5 137.5,599.5C147.833,592.5 158.667,586.667 170,582C181.333,576.667 193.167,572.833 205.5,570.5C217.833,568.167 230.333,567 243,567C256.333,567 269.167,568.167 281.5,570.5C293.833,572.833 305.667,576.667 317,582C329,586.667 340,592.5 350,599.5C360,606.5 369.333,614.333 378,623C386.667,631.667 394.5,641 401.5,651C408.5,661 414.333,671.667 419,683C424.333,695 428.167,707.167 430.5,719.5C432.833,731.833 434,744.333 434,757C434,770.333 432.833,783.167 430.5,795.5C428.167,807.833 424.333,819.667 419,831C414.333,842.333 408.5,853 401.5,863C394.5,873 386.333,882.667 377,892C368.333,900.667 359,908.333 349,915C339,921.667 328.333,927.667 317,933C305,937.667 293,941.333 281,944C269,946.667 256.667,948 244,948ZM190,846L245,791L296,841C298,843.667 300.333,845.5 303,846.5C305.667,847.5 308.667,848 312,848C314.667,848 317.333,847.5 320,846.5C322.667,845.5 325.333,843.667 328,841C330,839 331.5,836.667 332.5,834C333.5,831.333 334,828.667 334,826C334,822.667 333.5,819.667 332.5,817C331.5,814.333 330,811.667 328,809L277,759L332,703C334.667,701 336.5,698.5 337.5,695.5C338.5,692.5 339,689.667 339,687C338.333,683.667 337.333,680.5 336,677.5C334.667,674.5 333,672 331,670C328.333,667.333 325.667,665.5 323,664.5C320.333,663.5 317.333,662.667 314,662C310.667,662 307.667,662.5 305,663.5C302.333,664.5 299.667,666.333 297,669L242,724L191,673C189,671 186.667,669.5 184,668.5C181.333,667.5 178.333,667 175,667C172.333,667 169.667,667.5 167,668.5C164.333,669.5 161.667,671 159,673C157,675 155.5,677.333 154.5,680C153.5,682.667 153,685.667 153,689C153,692.333 153.5,695.333 154.5,698C155.5,700.667 157,703 159,705L210,756L155,811C152.333,813.667 150.5,816.333 149.5,819C148.5,821.667 148,824.667 148,828C148.667,831.333 149.667,834.333 151,837C152.333,839.667 154,842.333 156,845C158,847 160.5,848.667 163.5,850C166.5,851.333 169.667,852.333 173,853C175.667,853 178.5,852.5 181.5,851.5C184.5,850.5 187,848.667 189,846Z" fill="#000000" fill-opacity="1">
  </path>
</svg>