<svg width="596" height="333" xmlns="http://www.w3.org/2000/svg" xmlns:xlink="http://www.w3.org/1999/xlink" xml:space="preserve" overflow="hidden"><defs><linearGradient x1="1509.72" y1="563.041" x2="2025.91" y2="563.041" gradientUnits="userSpaceOnUse" spreadMethod="reflect" id="fill0"><stop offset="0" stop-color="#FF193A"/><stop offset="0.07" stop-color="#FF193A"/><stop offset="0.54" stop-color="#FFC000"/><stop offset="1" stop-color="#FFC000"/></linearGradient></defs><g transform="translate(-1470 -398)"><path d="M1563.53 499.717 1563.53 548.573 1593.54 548.573C1601.81 548.573 1608.3 546.176 1613.01 541.381 1617.72 536.587 1620.08 530.8 1620.08 524.021 1620.08 517.243 1617.72 511.497 1613.01 506.785 1608.3 502.073 1601.81 499.717 1593.54 499.717ZM1714.53 498.973 1714.53 548.077 1745.53 548.077C1753.14 548.077 1759.34 545.763 1764.13 541.133 1768.93 536.504 1771.32 530.635 1771.32 523.525 1771.32 516.747 1769.05 510.96 1764.5 506.165 1759.96 501.371 1753.8 498.973 1746.03 498.973ZM1921.88 495.749C1910.96 495.749 1901 498.312 1891.99 503.437 1882.98 508.563 1875.87 515.755 1870.66 525.013 1865.46 534.272 1862.85 544.853 1862.85 556.757 1862.85 568.661 1865.46 579.243 1870.66 588.501 1875.87 597.76 1882.98 604.952 1891.99 610.077 1901 615.203 1910.96 617.765 1921.88 617.765 1932.79 617.765 1942.79 615.203 1951.88 610.077 1960.98 604.952 1968.13 597.76 1973.34 588.501 1978.54 579.243 1981.15 568.661 1981.15 556.757 1981.15 544.853 1978.54 534.272 1973.34 525.013 1968.13 515.755 1960.98 508.563 1951.88 503.437 1942.79 498.312 1932.79 495.749 1921.88 495.749ZM1681.05 467.973 1745.78 467.973C1757.35 467.973 1767.64 470.371 1776.66 475.165 1785.67 479.96 1792.65 486.615 1797.61 495.129 1802.57 503.644 1805.05 513.275 1805.05 524.021 1805.05 535.429 1801.46 545.556 1794.26 554.401 1787.07 563.247 1778.02 569.653 1767.11 573.621L1766.86 575.357 1814.48 643.557 1814.48 645.541 1776.04 645.541 1730.16 578.829 1714.53 578.829 1714.53 645.541 1681.05 645.541ZM1530.05 467.973 1592.55 467.973C1603.79 467.973 1614.04 470.329 1623.3 475.041 1632.56 479.753 1639.83 486.367 1645.12 494.881 1650.41 503.396 1653.06 513.109 1653.06 524.021 1653.06 534.933 1650.41 544.688 1645.12 553.285 1639.83 561.883 1632.56 568.537 1623.3 573.249 1614.04 577.961 1603.79 580.317 1592.55 580.317L1563.53 580.317 1563.53 645.541 1530.05 645.541ZM1921.88 464.005C1939.24 464.005 1954.98 468.097 1969.12 476.281 1983.26 484.465 1994.37 495.667 2002.48 509.885 2010.58 524.104 2014.63 539.728 2014.63 556.757 2014.63 573.786 2010.58 589.411 2002.48 603.629 1994.37 617.848 1983.26 629.049 1969.12 637.233 1954.98 645.417 1939.24 649.509 1921.88 649.509 1904.52 649.509 1888.77 645.417 1874.63 637.233 1860.5 629.049 1849.38 617.848 1841.28 603.629 1833.17 589.411 1829.12 573.786 1829.12 556.757 1829.12 539.728 1833.17 524.104 1841.28 509.885 1849.38 495.667 1860.5 484.465 1874.63 476.281 1888.77 468.097 1904.52 464.005 1921.88 464.005Z" fill="url(#fill0)" fill-rule="evenodd"/><text fill="#000000" fill-opacity="0" font-family="Arial,Arial_MSFontService,sans-serif" font-size="185.504" x="1530.05" y="626.321">PRO</text></g></svg>